<svg xmlns="http://www.w3.org/2000/svg" viewBox="0 0 32 32" width="32" height="32">
  <rect width="32" height="32" fill="#F9F7F2" rx="4"/>
  <g transform="translate(6, 8)">
    <!-- L -->
    <path d="M 2 0 L 2 14 L 8 14 L 8 12 L 4 12 L 4 0 Z" fill="#5D4037"/>
    <!-- S -->
    <path d="M 10 0 C 10 0 10 0 10 0 L 18 0 L 18 2 L 12 2 C 11 2 10 3 10 4 C 10 5 11 6 12 6 L 16 6 C 17.5 6 19 7.5 19 9 L 19 10 C 19 11.5 17.5 13 16 13 L 10 13 L 10 11 L 16 11 C 17 11 18 10 18 9 C 18 8 17 7 16 7 L 12 7 C 10.5 7 9 5.5 9 4 L 9 3 C 9 1.5 10.5 0 12 0 Z" fill="#D4A373"/>
  </g>
</svg>
